<?xml version="1.0" encoding="UTF-8"?>
<svg width="224px" height="40px" viewBox="0 0 224 40" version="1.1" xmlns="http://www.w3.org/2000/svg" xmlns:xlink="http://www.w3.org/1999/xlink">
    <!-- Generator: Sketch 60.1 (88133) - https://sketch.com -->
    <title>social</title>
    <desc>Created with Sketch.</desc>
    <defs>
        <polygon id="path-1" points="0 0.005 15.995 0.005 15.995 15.998 0 15.998"></polygon>
    </defs>
    <g id="Symbols" stroke="none" stroke-width="1" fill="none" fill-rule="evenodd">
        <g id="Hero---2-Copy-4" transform="translate(-1052.000000, -51.000000)">
            <g id="social" transform="translate(1053.000000, 52.000000)">
                <g id="facebook.ae97c531" transform="translate(184.000000, 0.000000)" fill-rule="nonzero">
                    <path d="M19,38 C37.8535417,38 38,29.4935417 38,19 C38,8.50645833 37.8535417,0 19,0 C0.146458333,0 0,8.50645833 0,19 C0,29.4935417 0.146458333,38 19,38 Z" id="Path" stroke="#FFFFFF"></path>
                    <path d="M26.116,11 L11.884,11 C11.3957803,11 11,11.3957803 11,11.884 L11,26.116 C11,26.604 11.396,27 11.884,27 L19.547,27 L19.547,20.825 L17.457,20.825 L17.457,18.39 L19.537,18.39 L19.537,16.613 C19.537,14.544 20.797,13.419 22.641,13.419 C23.267,13.421 23.893,13.456 24.516,13.525 L24.516,15.684 L23.24,15.684 C22.238,15.684 22.045,16.158 22.045,16.857 L22.045,18.401 L24.445,18.401 L24.133,20.824 L22.045,20.824 L22.045,27 L26.115,27 C26.6032197,27 26.999,26.6042197 26.999,26.116 L26.999,11.884 C26.999,11.3957803 26.6032197,11 26.115,11 L26.116,11 Z" id="Path" fill="#FFFFFF"></path>
                </g>
                <g id="instagram.6f4a71af" transform="translate(138.000000, 0.000000)">
                    <path d="M19,38 C37.8535417,38 38,29.4935417 38,19 C38,8.50645833 37.8535417,0 19,0 C0.146458333,0 0,8.50645833 0,19 C0,29.4935417 0.146458333,38 19,38 Z" id="Path" fill-rule="nonzero"></path>
                    <path d="M19,38 C37.8535417,38 38,29.4935417 38,19 C38,8.50645833 37.8535417,0 19,0 C0.146458333,0 0,8.50645833 0,19 C0,29.4935417 0.146458333,38 19,38 Z" id="Path" stroke="#FFFFFF" fill-rule="nonzero"></path>
                    <g id="Group" transform="translate(11.000000, 11.000000)">
                        <g id="Clipped">
                            <mask id="mask-2" fill="white">
                                <use xlink:href="#path-1"></use>
                            </mask>
                            <g id="c"></g>
                            <path d="M7.997,0.005 C5.825,0.005 5.553,0.015 4.7,0.053 C3.85,0.092 3.268,0.227 2.76,0.425 C2.22622902,0.625612837 1.74265165,0.940262329 1.343,1.347 C0.935901321,1.74655301 0.620905718,2.23013781 0.42,2.764 C0.222,3.273 0.087,3.854 0.048,4.705 C0.01,5.558 0,5.831 0,8.003 C0,10.175 0.01,10.447 0.048,11.3 C0.087,12.151 0.222,12.732 0.42,13.241 C0.624,13.767 0.898,14.213 1.342,14.658 C1.787,15.102 2.232,15.376 2.759,15.58 C3.268,15.778 3.849,15.913 4.7,15.952 C5.553,15.991 5.825,16 7.997,16 C10.169,16 10.442,15.99 11.295,15.952 C12.146,15.913 12.727,15.778 13.236,15.58 C13.769771,15.3793872 14.2533483,15.0647377 14.653,14.658 C15.0597377,14.2583483 15.3743872,13.774771 15.575,13.241 C15.773,12.732 15.908,12.151 15.947,11.3 C15.986,10.447 15.995,10.175 15.995,8.003 C15.995,5.831 15.985,5.558 15.947,4.705 C15.908,3.854 15.773,3.273 15.575,2.764 C15.3743872,2.23022902 15.0597377,1.74665165 14.653,1.347 C14.2533483,0.940262329 13.769771,0.625612837 13.236,0.425 C12.727,0.227 12.146,0.092 11.295,0.053 C10.442,0.014 10.169,0.005 7.997,0.005 Z M7.997,1.446 C10.133,1.446 10.386,1.454 11.229,1.493 C12.009,1.528 12.432,1.659 12.714,1.768 C13.087,1.913 13.354,2.086 13.634,2.366 C13.914,2.646 14.087,2.913 14.232,3.286 C14.342,3.568 14.472,3.991 14.507,4.771 C14.546,5.614 14.554,5.867 14.554,8.003 C14.554,10.138 14.546,10.391 14.507,11.234 C14.472,12.014 14.341,12.437 14.232,12.719 C14.087,13.093 13.914,13.359 13.634,13.639 C13.354,13.919 13.087,14.092 12.714,14.237 C12.432,14.347 12.009,14.477 11.229,14.512 C10.386,14.551 10.133,14.559 7.997,14.559 C5.862,14.559 5.609,14.551 4.766,14.512 C3.986,14.477 3.563,14.347 3.281,14.237 C2.93349907,14.1089211 2.61912607,13.9045787 2.361,13.639 C2.09542133,13.3808739 1.89107889,13.0665009 1.763,12.719 C1.653,12.437 1.523,12.014 1.488,11.234 C1.449,10.391 1.441,10.138 1.441,8.003 C1.441,5.867 1.449,5.614 1.488,4.771 C1.523,3.991 1.653,3.568 1.763,3.286 C1.908,2.913 2.081,2.646 2.361,2.366 C2.641,2.086 2.907,1.913 3.281,1.768 C3.563,1.658 3.986,1.528 4.766,1.493 C5.609,1.454 5.862,1.446 7.997,1.446 Z" id="Shape" fill="#FFFFFF" fill-rule="nonzero" mask="url(#mask-2)"></path>
                        </g>
                    </g>
                    <path d="M18.997,21.668 C18.0324021,21.6866843 17.1329725,21.1827689 16.6451991,20.3503776 C16.1574258,19.5179863 16.1574258,18.4870137 16.6451991,17.6546224 C17.1329725,16.8222311 18.0324021,16.3183157 18.997,16.337 C20.4489946,16.3651252 21.6113691,17.550233 21.6113691,19.0025 C21.6113691,20.454767 20.4489946,21.6398748 18.997,21.668 L18.997,21.668 Z M18.997,14.896 C17.5146161,14.8728667 16.1348293,15.6504623 15.3868789,16.9305277 C14.6389285,18.210593 14.6389285,19.794407 15.3868789,21.0744723 C16.1348293,22.3545377 17.5146161,23.1321333 18.997,23.109 C21.2399733,23.0739973 23.0399161,21.2457464 23.0399161,19.0025 C23.0399161,16.7592536 21.2399733,14.9310027 18.997,14.896 L18.997,14.896 Z M24.226,14.733 C24.226,15.2631934 23.7961934,15.693 23.266,15.693 C22.7358066,15.693 22.306,15.2631934 22.306,14.733 C22.306,14.2028066 22.7358066,13.773 23.266,13.773 C23.7961934,13.773 24.226,14.2028066 24.226,14.733" id="Shape" fill="#FFFFFF" fill-rule="nonzero"></path>
                </g>
                <g id="linkedin.469b8f01" transform="translate(92.000000, 0.000000)" fill-rule="nonzero">
                    <path d="M19,38 C37.8535417,38 38,29.4935417 38,19 C38,8.50645833 37.8535417,0 19,0 C0.146458333,0 0,8.50645833 0,19 C0,29.4935417 0.146458333,38 19,38 Z" id="Path" stroke="#FFFFFF"></path>
                    <path d="M25.816,11 C26.469,11 27,11.516 27,12.154 L27,12.154 L27,25.846 C27,26.483 26.47,27 25.816,27 L25.816,27 L12.18,27 C11.529,27 11,26.483 11,25.846 L11,25.846 L11,12.154 C11,11.516 11.529,11 12.18,11 L12.18,11 Z M21.787,16.809 C20.633,16.809 19.859,17.442 19.542,18.042 L19.542,18.042 L19.51,18.042 L19.51,16.998 L17.235,16.998 L17.235,24.634 L19.605,24.634 L19.605,20.858 C19.605,19.861 19.794,18.896 21.029,18.896 C22.247,18.896 22.262,20.035 22.262,20.921 L22.262,20.921 L22.262,24.634 L24.635,24.634 L24.635,20.446 C24.635,18.39 24.191,16.809 21.787,16.809 Z M15.746,16.998 L13.371,16.998 L13.371,24.635 L15.746,24.635 L15.746,16.998 Z M14.557,13.204 C14.0567318,13.1908789 13.5887818,13.4503988 13.3349922,13.8817122 C13.0812025,14.3130256 13.0815915,14.8481214 13.336008,15.2790654 C13.5904246,15.7100093 14.0587514,15.9688485 14.559,15.955 C15.3042169,15.9343699 15.897464,15.3240288 15.8969224,14.5785266 C15.89638,13.8330244 15.3022461,13.2235465 14.557,13.204 Z" id="Combined-Shape" fill="#FFFFFE"></path>
                </g>
                <g id="twitter.e33590c7" transform="translate(46.000000, 0.000000)" fill-rule="nonzero">
                    <path d="M19,38 C37.8535417,38 38,29.4935417 38,19 C38,8.50645833 37.8535417,0 19,0 C0.146458333,0 0,8.50645833 0,19 C0,29.4935417 0.146458333,38 19,38 Z" id="Path" stroke="#FFFFFF"></path>
                    <path d="M16.03,25.5020003 C22.066,25.5020003 25.368,20.4979981 25.368,16.165 C25.368,16.024 25.368,15.883 25.362,15.742 C26.0046867,15.2763786 26.5593413,14.7000525 27,14.04 C26.3996642,14.3048529 25.7634398,14.4794102 25.112,14.558 C25.7980962,14.1473854 26.3118922,13.5017649 26.558,12.741 C25.9133382,13.1231074 25.207696,13.3913597 24.472,13.534 C23.8518239,12.8721498 22.9850078,12.4970364 22.078,12.4979981 C20.2655347,12.499654 18.796654,13.9685347 18.795,15.781 C18.795,16.037 18.827,16.286 18.878,16.53 C16.2390561,16.3971789 13.7805153,15.1504618 12.114,13.1 C11.2443887,14.6011711 11.689871,16.5196335 13.132,17.484 C12.6113595,17.4658141 12.1023053,17.3253617 11.646,17.074 L11.646,17.118 C11.6470938,18.6795808 12.7460855,20.0251144 14.276,20.338 C13.9949157,20.41547 13.7045624,20.4541614 13.413,20.453 C13.202,20.453 12.997,20.433 12.798,20.395 C13.2270293,21.732483 14.459619,22.6486839 15.864,22.674 C14.701721,23.5879371 13.2655702,24.0839146 11.787,24.082 C11.525,24.082 11.262,24.069 11.007,24.037 C12.5074456,24.9941758 14.2502466,25.5024783 16.03,25.5020003" id="Path" fill="#FFFFFF"></path>
                </g>
                <g id="youtube.383c03d4" fill-rule="nonzero">
                    <path d="M19,38 C37.8535417,38 38,29.4935417 38,19 C38,8.50645833 37.8535417,0 19,0 C0.146458333,0 0,8.50645833 0,19 C0,29.4935417 0.146458333,38 19,38 Z" id="Path" stroke="#FFFFFF"></path>
                    <polyline id="Path" fill="#FFFFFE" points="14 27 14 11 28 19 14 27"></polyline>
                </g>
            </g>
        </g>
    </g>
</svg>